<svg width="800" height="800" xmlns="http://www.w3.org/2000/svg">
 <g id="Layer_1">
  <title>Layer 1</title>
  <path fill="#000000" stroke="#000000" fill-opacity="0" opacity="NaN" d="m407.70545,617.38639c78,-5 195,-4 283,2c88,6 64,56 1,55c-63,-1 -216,0 -285,-3c-69,-3 -77,-49 1,-54z" id="svg_13" stroke-width="99"/>
  <path fill="#000000" stroke="#000000" stroke-width="44" fill-opacity="0" opacity="NaN" d="m410.65497,523.40116c52,-3 245,2 288,2c43,0 32,-34 32,-60c0,-26 -5,-108 -7,-140c-2,-32 -6,-38 -49,-36c-43,2 -101,1 -124,1c-23,0 -23.00003,2.99997 -22,26c1.00003,23.00003 9,50 -22,84c-31,34 -83,29 -102,29c-19,0 -41,-3 -43,18c-2,21 0,24 1,45c1,21 -4,34 48,31z" id="svg_14"/>
  <path fill="#000000" stroke="#000000" stroke-width="44" fill-opacity="0" opacity="NaN" d="m382.92162,361.00129c44.40018,0.7999 72.79971,5.3332 78.99988,-40.13357c6.20017,-45.46677 -92.60038,-105.1337 -132.60038,-128.1337c-40,-23 -133.99937,-78.33302 -156.99947,-77.99963c-23.0001,0.33339 -87.66704,24.66684 -33,45.0001c54.66704,20.33326 76.61739,64.05489 94.96268,90.12129c18.34529,26.0664 104.23712,110.34562 148.63729,111.14551z" id="svg_15"/>
  <path fill="#000000" stroke="#000000" stroke-width="44" fill-opacity="0" opacity="NaN" d="m95.68552,232.88567c-16.33339,12.33326 -44.36364,149.84831 -47.36364,173.84831c-3,24 28.9998,51.99997 40.9998,25.99997c12,-26 63.33301,-139.8179 68.33301,-157.8179c5,-18 -45.63578,-54.36364 -61.96917,-42.03038z" id="svg_16"/>
  <path fill="#000000" stroke="#000000" stroke-width="44" fill-opacity="0" opacity="NaN" d="m61.65497,505.40116c-9,-8 -27,-14 -27,15c0,29 -9,68 33,95c42,27 116,-19 129,-32c13,-13 -51,10 -92,-21c-41,-31 -34,-49 -43,-57z" id="svg_17"/>
  <path fill="#000000" stroke="#000000" stroke-width="44" fill-opacity="0" opacity="NaN" d="m68.15497,417.40116c8,-37 44,-139 54,-168" id="svg_18"/>
  <path fill="#000000" stroke="#000000" stroke-width="44" fill-opacity="0" opacity="NaN" d="m149.15497,151.40116c41,-4 126,31 151,52c25,21 127,90 135,105c8,15 -29,24 -42,22c-13,-2 -84,-41 -100,-62c-16,-21 -97,-82 -102,-91c-5,-9 208,128 218,137" id="svg_20"/>
  <path fill="#000000" stroke="#000000" stroke-width="44" fill-opacity="0" opacity="NaN" d="m52.15497,540.40116c10,24 61,61 77,57" id="svg_21"/>
  <path fill="#000000" stroke="#000000" stroke-width="44" fill-opacity="0" opacity="NaN" d="m387.15497,442.40116c5,23 -18,47 4,47c22,0 298,0 305,0c7,0 16,-171 -2,-183c-18,-12 -124,-12 -139,1c-15,13 -16,108 0,123c16,15 99,24 133,6c34,-18 -5,45 -9,46c-4,1 -256,-29 -265,-26c-9,3 85,-20 97,-20c12,0 24,-34 27,-32c3,2 2,43 7,49" id="svg_22"/>
 </g>

</svg>