<svg xmlns="http://www.w3.org/2000/svg" height="24px" viewBox="0 0 24 24" width="24px"><path fill="none" stroke="#000" stroke-width="2" d="M12.4 18c2.3-.2 5.6-.2 8.2 0s1.8 1.6 0 1.6l-8.2-.1c-2-.1-2.2-1.4 0-1.6z" opacity="NaN"/><path fill="none" stroke="#000" stroke-width="1.3" d="M12.7 15.7H21c1.3 0 .9-1 .9-1.7l-.2-4c0-1-.2-1.1-1.4-1h-3.6c-.6 0-.7 0-.6.7s.2 1.5-.7 2.5-2.4.8-3 .8-1.1-.1-1.2.5 0 .7 0 1.3 0 1 1.5.9zm-.9-4.7c1.3 0 2.2.2 2.3-1.1.2-1.4-2.7-3-3.8-3.7S6.4 3.9 5.8 3.9c-.7 0-2.5.7-1 1.3 1.6.6 2.2 1.9 2.8 2.6.5.8 3 3.2 4.2 3.2zM3.6 7.3c-.5.4-1.3 4.4-1.4 5s.8 1.6 1.2.8l2-4.6C5.6 8 4 7 3.6 7.3zm-1 7.9c-.3-.3-.8-.4-.8.4s-.2 2 1 2.8 3.3-.6 3.7-1-1.5.3-2.7-.6-1-1.4-1.2-1.6z" opacity="NaN"/><path fill="none" stroke="#000" stroke-width="2" d="M4.3 7.8 2.7 13"/><path fill="none" stroke="#000" stroke-width="2" d="m4.8 4.3 8.9 5.8" opacity="undefined"/><path fill="none" stroke="#000" stroke-width="2" d="m8 7.1 4.7 3.4"/><path fill="none" stroke="#000" stroke-width="2" d="m2 15.9 2.5 2.5" opacity="undefined"/><path fill="none" stroke="#000" stroke-width="3" d="M11.5 14.3h10" opacity="undefined"/><path fill="none" stroke="#000" stroke-width="1.3" d="m525.3 512.5 5.6-.2v3.7l-5.4-.1s2.3 8-.2-3.4z" opacity="NaN"/><path fill="none" stroke="#000" stroke-width="1.5" d="M20.2 13.6c1.4 0 1.3-3 .7-4a7.3 7.3 0 0 0-4.2-.2c-.5.8-1.1 4.3.8 4.2" opacity="NaN"/></svg>